<svg xmlns="http://www.w3.org/2000/svg" xmlns:xlink="http://www.w3.org/1999/xlink" width="100" zoomAndPan="magnify" viewBox="0 0 75 74.999997" height="100" preserveAspectRatio="xMidYMid meet" version="1.2"><defs><clipPath id="441c397300"><path d="M 10.636719 24 L 52 24 L 52 64 L 10.636719 64 Z M 10.636719 24 "/></clipPath><clipPath id="9fb033b98d"><path d="M 36 25 L 64.636719 25 L 64.636719 62 L 36 62 Z M 36 25 "/></clipPath><clipPath id="73ff18773a"><path d="M 46.085938 59.144531 L 53.121094 59.144531 L 53.121094 66.179688 L 46.085938 66.179688 Z M 46.085938 59.144531 "/></clipPath><clipPath id="883f372fa7"><path d="M 49.601562 59.144531 C 47.660156 59.144531 46.085938 60.71875 46.085938 62.660156 C 46.085938 64.605469 47.660156 66.179688 49.601562 66.179688 C 51.546875 66.179688 53.121094 64.605469 53.121094 62.660156 C 53.121094 60.71875 51.546875 59.144531 49.601562 59.144531 Z M 49.601562 59.144531 "/></clipPath><clipPath id="e83bbcbb7f"><path d="M 10.636719 17.234375 L 17.671875 17.234375 L 17.671875 24.269531 L 10.636719 24.269531 Z M 10.636719 17.234375 "/></clipPath><clipPath id="e91f7223fb"><path d="M 14.152344 17.234375 C 12.210938 17.234375 10.636719 18.808594 10.636719 20.75 C 10.636719 22.695312 12.210938 24.269531 14.152344 24.269531 C 16.09375 24.269531 17.671875 22.695312 17.671875 20.75 C 17.671875 18.808594 16.09375 17.234375 14.152344 17.234375 Z M 14.152344 17.234375 "/></clipPath></defs><g id="35078385aa"><path style=" stroke:none;fill-rule:nonzero;fill:#167ad9;fill-opacity:1;" d="M 45.613281 16.976562 C 47.21875 16.957031 48.804688 17.277344 50.3125 17.824219 C 49.972656 17.34375 49.574219 16.925781 49.148438 16.527344 C 48.109375 15.53125 47.101562 14.503906 46.097656 13.476562 C 42.113281 9.601562 35.496094 8.96875 30.832031 11.96875 C 29.320312 12.8125 28.230469 14.171875 27.019531 15.371094 L 25.960938 15.53125 L 25.09375 15.660156 C 24.601562 15.703125 24.117188 15.789062 23.636719 15.886719 L 23.605469 15.886719 L 21.96875 16.144531 C 20.253906 16.324219 18.542969 16.601562 16.851562 16.933594 C 17.183594 16.945312 17.511719 16.957031 17.84375 16.96875 C 27.117188 16.96875 36.363281 16.976562 45.613281 16.976562 Z M 45.613281 16.976562 "/><g clip-rule="nonzero" clip-path="url(#441c397300)"><path style=" stroke:none;fill-rule:nonzero;fill:#167ad9;fill-opacity:1;" d="M 25.511719 43.515625 C 24.824219 42.070312 25.167969 40.21875 26.011719 38.914062 C 26.710938 37.84375 27.8125 37.167969 29.03125 36.855469 C 31.257812 36.300781 33.773438 36.460938 36.054688 36.460938 C 38.464844 36.460938 40.871094 36.523438 43.269531 36.523438 C 44.46875 36.523438 45.839844 36.707031 47.015625 36.472656 C 47.851562 36.300781 48.65625 35.882812 49.285156 35.304688 C 50.527344 34.179688 51.085938 32.5 51.160156 30.871094 C 51.203125 30.132812 51.148438 29.386719 51.007812 28.65625 C 50.550781 26.238281 48.441406 24.363281 45.976562 24.277344 C 44.328125 24.214844 42.660156 24.289062 41 24.289062 C 39.222656 24.289062 37.445312 24.289062 35.667969 24.289062 C 32.113281 24.289062 28.5625 24.289062 25.007812 24.289062 C 22.671875 24.289062 20.351562 24.289062 18.015625 24.289062 C 17.417969 24.898438 16.828125 25.488281 16.230469 26.089844 C 14.902344 27.414062 13.476562 28.6875 12.515625 30.328125 C 11.378906 32.191406 10.789062 34.363281 10.707031 36.535156 C 10.640625 38.902344 11.273438 41.265625 12.460938 43.3125 C 13.53125 45.089844 15.09375 46.460938 16.527344 47.914062 C 20.296875 51.683594 24.066406 55.453125 27.832031 59.21875 C 28.9375 60.34375 30.132812 61.394531 31.539062 62.140625 C 35.507812 64.28125 40.605469 64.046875 44.382812 61.597656 C 38.527344 56.09375 32.566406 50.710938 26.6875 45.238281 C 26.195312 44.734375 25.808594 44.148438 25.511719 43.515625 Z M 25.511719 43.515625 "/></g><g clip-rule="nonzero" clip-path="url(#9fb033b98d)"><path style=" stroke:none;fill-rule:nonzero;fill:#167ad9;fill-opacity:1;" d="M 62.847656 31.121094 C 61.875 29.332031 60.453125 27.8125 58.996094 26.429688 C 58.546875 26.003906 58.105469 25.574219 57.65625 25.144531 C 57.894531 26.035156 58.160156 26.921875 58.289062 27.84375 C 59.015625 33.292969 57.230469 39.46875 52.207031 42.347656 C 47.5625 45.015625 41.269531 44.832031 36.117188 44.039062 C 36.320312 44.242188 36.535156 44.457031 36.738281 44.648438 C 37.433594 45.292969 38.132812 45.925781 38.828125 46.554688 C 43.953125 51.289062 49.070312 56.03125 54.210938 60.738281 C 54.671875 61.167969 55.140625 61.585938 55.625 61.992188 C 54.167969 59.691406 52.539062 57.496094 51.03125 55.226562 C 54.265625 51.984375 57.507812 48.75 60.75 45.507812 C 61.511719 44.746094 62.152344 43.878906 62.667969 42.9375 C 63.566406 41.308594 64.082031 39.480469 64.1875 37.628906 C 64.347656 35.390625 63.929688 33.109375 62.847656 31.121094 Z M 62.847656 31.121094 "/></g><g clip-rule="nonzero" clip-path="url(#73ff18773a)"><g clip-rule="nonzero" clip-path="url(#883f372fa7)"><path style=" stroke:none;fill-rule:nonzero;fill:#3b3f3f;fill-opacity:1;" d="M 46.085938 59.144531 L 53.121094 59.144531 L 53.121094 66.179688 L 46.085938 66.179688 Z M 46.085938 59.144531 "/></g></g><g clip-rule="nonzero" clip-path="url(#e83bbcbb7f)"><g clip-rule="nonzero" clip-path="url(#e91f7223fb)"><path style=" stroke:none;fill-rule:nonzero;fill:#3b3f3f;fill-opacity:1;" d="M 10.636719 17.234375 L 17.671875 17.234375 L 17.671875 24.269531 L 10.636719 24.269531 Z M 10.636719 17.234375 "/></g></g></g></svg>