<svg xmlns="http://www.w3.org/2000/svg" xmlns:xlink="http://www.w3.org/1999/xlink" width="200" zoomAndPan="magnify" viewBox="0 0 150 74.999997" height="100" preserveAspectRatio="xMidYMid meet" version="1.2"><defs><clipPath id="72b6a3065b"><path d="M 9.40625 25 L 44 25 L 44 59 L 9.40625 59 Z M 9.40625 25 "/></clipPath><clipPath id="698eb8f5ae"><path d="M 30 26 L 54.40625 26 L 54.40625 58 L 30 58 Z M 30 26 "/></clipPath><clipPath id="d8e10b459c"><path d="M 39.558594 56.285156 L 45.464844 56.285156 L 45.464844 62.1875 L 39.558594 62.1875 Z M 39.558594 56.285156 "/></clipPath><clipPath id="2e02b9e29a"><path d="M 42.511719 56.285156 C 40.882812 56.285156 39.558594 57.605469 39.558594 59.238281 C 39.558594 60.867188 40.882812 62.1875 42.511719 62.1875 C 44.140625 62.1875 45.464844 60.867188 45.464844 59.238281 C 45.464844 57.605469 44.140625 56.285156 42.511719 56.285156 Z M 42.511719 56.285156 "/></clipPath><clipPath id="2ff102d925"><path d="M 9.40625 19.320312 L 15.308594 19.320312 L 15.308594 25.226562 L 9.40625 25.226562 Z M 9.40625 19.320312 "/></clipPath><clipPath id="7876726264"><path d="M 12.355469 19.320312 C 10.726562 19.320312 9.40625 20.644531 9.40625 22.273438 C 9.40625 23.902344 10.726562 25.226562 12.355469 25.226562 C 13.988281 25.226562 15.308594 23.902344 15.308594 22.273438 C 15.308594 20.644531 13.988281 19.320312 12.355469 19.320312 Z M 12.355469 19.320312 "/></clipPath></defs><g id="c842ab461e"><path style=" stroke:none;fill-rule:nonzero;fill:#167ad9;fill-opacity:1;" d="M 38.707031 19.519531 C 40.050781 19.5 41.378906 19.769531 42.644531 20.226562 C 42.355469 19.824219 42.023438 19.472656 41.667969 19.140625 C 40.796875 18.308594 39.953125 17.449219 39.109375 16.585938 C 35.773438 13.339844 30.234375 12.8125 26.324219 15.324219 C 25.058594 16.03125 24.144531 17.167969 23.132812 18.175781 L 22.242188 18.308594 L 21.515625 18.417969 C 21.105469 18.453125 20.699219 18.523438 20.296875 18.605469 L 20.269531 18.605469 L 18.898438 18.820312 C 17.464844 18.972656 16.027344 19.207031 14.613281 19.484375 C 14.890625 19.492188 15.167969 19.5 15.445312 19.511719 C 23.210938 19.511719 30.960938 19.519531 38.707031 19.519531 Z M 38.707031 19.519531 "/><g clip-rule="nonzero" clip-path="url(#72b6a3065b)"><path style=" stroke:none;fill-rule:nonzero;fill:#167ad9;fill-opacity:1;" d="M 21.867188 41.75 C 21.292969 40.539062 21.578125 38.988281 22.289062 37.894531 C 22.871094 36.996094 23.792969 36.429688 24.816406 36.171875 C 26.683594 35.703125 28.789062 35.839844 30.699219 35.839844 C 32.71875 35.839844 34.734375 35.894531 36.742188 35.894531 C 37.746094 35.894531 38.894531 36.046875 39.882812 35.847656 C 40.582031 35.703125 41.253906 35.355469 41.78125 34.871094 C 42.824219 33.929688 43.289062 32.523438 43.351562 31.160156 C 43.386719 30.539062 43.34375 29.914062 43.226562 29.300781 C 42.839844 27.277344 41.074219 25.707031 39.011719 25.636719 C 37.632812 25.582031 36.230469 25.644531 34.84375 25.644531 C 33.355469 25.644531 31.863281 25.644531 30.375 25.644531 C 27.398438 25.644531 24.421875 25.644531 21.445312 25.644531 C 19.492188 25.644531 17.542969 25.644531 15.589844 25.644531 C 15.085938 26.15625 14.59375 26.648438 14.09375 27.148438 C 12.980469 28.261719 11.789062 29.328125 10.980469 30.703125 C 10.03125 32.261719 9.535156 34.082031 9.464844 35.902344 C 9.410156 37.882812 9.941406 39.867188 10.9375 41.578125 C 11.832031 43.066406 13.140625 44.214844 14.34375 45.433594 C 17.5 48.589844 20.65625 51.746094 23.8125 54.902344 C 24.734375 55.84375 25.742188 56.722656 26.914062 57.351562 C 30.242188 59.144531 34.511719 58.949219 37.675781 56.894531 C 32.769531 52.285156 27.777344 47.773438 22.851562 43.191406 C 22.441406 42.769531 22.117188 42.277344 21.867188 41.75 Z M 21.867188 41.75 "/></g><g clip-rule="nonzero" clip-path="url(#698eb8f5ae)"><path style=" stroke:none;fill-rule:nonzero;fill:#167ad9;fill-opacity:1;" d="M 53.144531 31.363281 C 52.328125 29.867188 51.136719 28.59375 49.917969 27.4375 C 49.539062 27.078125 49.171875 26.71875 48.796875 26.359375 C 48.992188 27.105469 49.214844 27.851562 49.324219 28.621094 C 49.933594 33.183594 48.4375 38.359375 44.230469 40.769531 C 40.339844 43.003906 35.066406 42.851562 30.753906 42.1875 C 30.921875 42.359375 31.101562 42.539062 31.273438 42.699219 C 31.855469 43.238281 32.4375 43.765625 33.023438 44.296875 C 37.316406 48.257812 41.601562 52.230469 45.90625 56.175781 C 46.292969 56.535156 46.6875 56.886719 47.089844 57.226562 C 45.871094 55.296875 44.507812 53.460938 43.246094 51.558594 C 45.953125 48.84375 48.667969 46.132812 51.386719 43.417969 C 52.023438 42.78125 52.5625 42.054688 52.992188 41.265625 C 53.746094 39.902344 54.175781 38.367188 54.265625 36.816406 C 54.398438 34.941406 54.050781 33.03125 53.144531 31.363281 Z M 53.144531 31.363281 "/></g><g clip-rule="nonzero" clip-path="url(#d8e10b459c)"><g clip-rule="nonzero" clip-path="url(#2e02b9e29a)"><path style=" stroke:none;fill-rule:nonzero;fill:#3b3f3f;fill-opacity:1;" d="M 39.558594 56.285156 L 45.464844 56.285156 L 45.464844 62.1875 L 39.558594 62.1875 Z M 39.558594 56.285156 "/></g></g><g clip-rule="nonzero" clip-path="url(#2ff102d925)"><g clip-rule="nonzero" clip-path="url(#7876726264)"><path style=" stroke:none;fill-rule:nonzero;fill:#3b3f3f;fill-opacity:1;" d="M 9.40625 19.320312 L 15.308594 19.320312 L 15.308594 25.226562 L 9.40625 25.226562 Z M 9.40625 19.320312 "/></g></g><g style="fill:#3b3f3f;fill-opacity:1;"><g transform="translate(59.307128, 50.27201)"><path style="stroke:none" d="M 6.53125 -5.5625 L 4.703125 -5.5625 L 4.703125 0 L 1.1875 0 L 1.1875 -15.875 L 7.21875 -15.875 C 8.46875 -15.875 9.523438 -15.628906 10.390625 -15.140625 C 11.265625 -14.660156 11.914062 -14.023438 12.34375 -13.234375 C 12.769531 -12.441406 12.984375 -11.582031 12.984375 -10.65625 C 12.984375 -9.632812 12.722656 -8.707031 12.203125 -7.875 C 11.691406 -7.050781 10.9375 -6.4375 9.9375 -6.03125 L 13.34375 0 L 9.640625 0 Z M 4.703125 -8.4375 L 6.640625 -8.4375 C 7.460938 -8.4375 8.148438 -8.601562 8.703125 -8.9375 C 9.265625 -9.28125 9.546875 -9.851562 9.546875 -10.65625 C 9.546875 -11.425781 9.269531 -11.972656 8.71875 -12.296875 C 8.164062 -12.628906 7.472656 -12.796875 6.640625 -12.796875 L 4.703125 -12.796875 Z M 4.703125 -8.4375 "/></g></g><g style="fill:#3b3f3f;fill-opacity:1;"><g transform="translate(74.977017, 50.27201)"><path style="stroke:none" d="M 5.375 0.203125 C 3.894531 0.203125 2.75 -0.359375 1.9375 -1.484375 C 1.125 -2.609375 0.71875 -4.117188 0.71875 -6.015625 C 0.71875 -7.921875 1.132812 -9.4375 1.96875 -10.5625 C 2.800781 -11.6875 3.953125 -12.25 5.421875 -12.25 C 6.429688 -12.25 7.207031 -12.023438 7.75 -11.578125 C 8.300781 -11.128906 8.679688 -10.679688 8.890625 -10.234375 L 9.078125 -10.234375 L 9.078125 -12 L 12.640625 -12 L 12.640625 0 L 9.078125 0 L 9.078125 -1.921875 L 8.890625 -1.921875 C 8.660156 -1.441406 8.269531 -0.96875 7.71875 -0.5 C 7.164062 -0.03125 6.382812 0.203125 5.375 0.203125 Z M 6.71875 -2.625 C 7.519531 -2.625 8.113281 -2.960938 8.5 -3.640625 C 8.894531 -4.316406 9.09375 -5.113281 9.09375 -6.03125 C 9.09375 -6.9375 8.894531 -7.726562 8.5 -8.40625 C 8.113281 -9.082031 7.519531 -9.421875 6.71875 -9.421875 C 5.882812 -9.421875 5.273438 -9.085938 4.890625 -8.421875 C 4.503906 -7.765625 4.3125 -6.976562 4.3125 -6.0625 C 4.3125 -5.125 4.503906 -4.316406 4.890625 -3.640625 C 5.273438 -2.960938 5.882812 -2.625 6.71875 -2.625 Z M 6.71875 -2.625 "/></g></g><g style="fill:#3b3f3f;fill-opacity:1;"><g transform="translate(90.828319, 50.27201)"><path style="stroke:none" d="M 1.59375 -12 L 5.109375 -12 L 5.109375 0 L 1.59375 0 Z M 3.34375 -14 C 2.789062 -14 2.332031 -14.179688 1.96875 -14.546875 C 1.613281 -14.921875 1.4375 -15.375 1.4375 -15.90625 C 1.4375 -16.445312 1.613281 -16.898438 1.96875 -17.265625 C 2.332031 -17.640625 2.789062 -17.828125 3.34375 -17.828125 C 3.882812 -17.828125 4.335938 -17.640625 4.703125 -17.265625 C 5.078125 -16.898438 5.265625 -16.445312 5.265625 -15.90625 C 5.265625 -15.375 5.078125 -14.921875 4.703125 -14.546875 C 4.335938 -14.179688 3.882812 -14 3.34375 -14 Z M 3.34375 -14 "/></g></g><g style="fill:#3b3f3f;fill-opacity:1;"><g transform="translate(99.400699, 50.27201)"><path style="stroke:none" d="M 5.234375 0.0625 C 4.046875 0.0625 3.164062 -0.113281 2.59375 -0.46875 C 2.03125 -0.832031 1.679688 -1.269531 1.546875 -1.78125 C 1.410156 -2.300781 1.34375 -2.960938 1.34375 -3.765625 L 1.359375 -17.015625 L 4.875 -17.015625 L 4.875 -4.484375 C 4.875 -3.960938 4.898438 -3.566406 4.953125 -3.296875 C 5.003906 -3.035156 5.15625 -2.828125 5.40625 -2.671875 C 5.65625 -2.523438 6.054688 -2.453125 6.609375 -2.453125 C 6.890625 -2.453125 7.082031 -2.46875 7.1875 -2.5 L 7.1875 -0.046875 C 6.507812 0.0234375 5.859375 0.0625 5.234375 0.0625 Z M 5.234375 0.0625 "/></g></g><g style="fill:#3b3f3f;fill-opacity:1;"><g transform="translate(109.242926, 50.27201)"><path style="stroke:none" d="M 4.765625 -12.796875 L 4.765625 -9.4375 L 10.703125 -9.4375 L 10.703125 -6.6875 L 4.765625 -6.6875 L 4.765625 0 L 1.203125 0 L 1.203125 -15.875 L 11.5 -15.875 L 11.5 -12.796875 Z M 4.765625 -12.796875 "/></g></g><g style="fill:#3b3f3f;fill-opacity:1;"><g transform="translate(122.690591, 50.27201)"><path style="stroke:none" d="M 1.59375 -12 L 5.109375 -12 L 5.109375 0 L 1.59375 0 Z M 3.34375 -14 C 2.789062 -14 2.332031 -14.179688 1.96875 -14.546875 C 1.613281 -14.921875 1.4375 -15.375 1.4375 -15.90625 C 1.4375 -16.445312 1.613281 -16.898438 1.96875 -17.265625 C 2.332031 -17.640625 2.789062 -17.828125 3.34375 -17.828125 C 3.882812 -17.828125 4.335938 -17.640625 4.703125 -17.265625 C 5.078125 -16.898438 5.265625 -16.445312 5.265625 -15.90625 C 5.265625 -15.375 5.078125 -14.921875 4.703125 -14.546875 C 4.335938 -14.179688 3.882812 -14 3.34375 -14 Z M 3.34375 -14 "/></g></g><g style="fill:#3b3f3f;fill-opacity:1;"><g transform="translate(131.262971, 50.27201)"><path style="stroke:none" d="M 4.109375 -5.984375 L 0.546875 -12 L 4.40625 -12 L 6.390625 -8.125 L 6.484375 -8.125 L 8.53125 -12 L 12.359375 -12 L 8.71875 -5.984375 L 12.34375 0 L 8.5 0 L 6.484375 -3.875 L 6.390625 -3.875 L 4.40625 0 L 0.546875 0 Z M 4.109375 -5.984375 "/></g></g><g style="fill:#3b3f3f;fill-opacity:1;"><g transform="translate(60.56798, 57.186116)"><path style="stroke:none" d="M 0.3125 -3.703125 L 1.140625 -3.703125 L 1.140625 0 L 0.3125 0 Z M 0.3125 -3.703125 "/></g></g><g style="fill:#3b3f3f;fill-opacity:1;"><g transform="translate(62.465873, 57.186116)"><path style="stroke:none" d="M 2.953125 -2.984375 L 1.96875 -2.984375 L 1.96875 0 L 1.15625 0 L 1.15625 -2.984375 L 0.1875 -2.984375 L 0.1875 -3.703125 L 2.953125 -3.703125 Z M 2.953125 -2.984375 "/></g></g><g style="fill:#3b3f3f;fill-opacity:1;"><g transform="translate(66.044914, 57.186116)"><path style="stroke:none" d=""/></g></g><g style="fill:#3b3f3f;fill-opacity:1;"><g transform="translate(67.699624, 57.186116)"><path style="stroke:none" d="M 0.28125 -3.703125 L 1.734375 -3.703125 C 2.054688 -3.703125 2.34375 -3.628906 2.59375 -3.484375 C 2.84375 -3.335938 3.035156 -3.125 3.171875 -2.84375 C 3.316406 -2.570312 3.390625 -2.242188 3.390625 -1.859375 C 3.390625 -1.460938 3.316406 -1.125 3.171875 -0.84375 C 3.035156 -0.570312 2.84375 -0.363281 2.59375 -0.21875 C 2.34375 -0.0703125 2.050781 0 1.71875 0 L 0.28125 0 Z M 1.5625 -0.75 C 1.851562 -0.75 2.082031 -0.828125 2.25 -0.984375 C 2.425781 -1.148438 2.515625 -1.441406 2.515625 -1.859375 C 2.515625 -2.273438 2.425781 -2.5625 2.25 -2.71875 C 2.082031 -2.882812 1.851562 -2.96875 1.5625 -2.96875 L 1.078125 -2.96875 L 1.078125 -0.75 Z M 1.5625 -0.75 "/></g></g><g style="fill:#3b3f3f;fill-opacity:1;"><g transform="translate(71.717453, 57.186116)"><path style="stroke:none" d="M 0.3125 -3.703125 L 1.140625 -3.703125 L 1.140625 0 L 0.3125 0 Z M 0.3125 -3.703125 "/></g></g><g style="fill:#3b3f3f;fill-opacity:1;"><g transform="translate(73.615346, 57.186116)"><path style="stroke:none" d="M 0.046875 -3.703125 L 0.875 -3.703125 L 1.75 -0.875 L 1.78125 -0.875 L 2.640625 -3.703125 L 3.46875 -3.703125 L 2.28125 0 L 1.234375 0 Z M 0.046875 -3.703125 "/></g></g><g style="fill:#3b3f3f;fill-opacity:1;"><g transform="translate(77.564454, 57.186116)"><path style="stroke:none" d="M 1.515625 -1.296875 L 1.09375 -1.296875 L 1.09375 0 L 0.28125 0 L 0.28125 -3.703125 L 1.671875 -3.703125 C 1.972656 -3.703125 2.222656 -3.644531 2.421875 -3.53125 C 2.617188 -3.414062 2.765625 -3.265625 2.859375 -3.078125 C 2.960938 -2.890625 3.015625 -2.691406 3.015625 -2.484375 C 3.015625 -2.242188 2.953125 -2.023438 2.828125 -1.828125 C 2.710938 -1.640625 2.539062 -1.5 2.3125 -1.40625 L 3.109375 0 L 2.25 0 Z M 1.09375 -1.96875 L 1.546875 -1.96875 C 1.734375 -1.96875 1.890625 -2.003906 2.015625 -2.078125 C 2.148438 -2.160156 2.21875 -2.296875 2.21875 -2.484375 C 2.21875 -2.660156 2.15625 -2.785156 2.03125 -2.859375 C 1.90625 -2.941406 1.742188 -2.984375 1.546875 -2.984375 L 1.09375 -2.984375 Z M 1.09375 -1.96875 "/></g></g><g style="fill:#3b3f3f;fill-opacity:1;"><g transform="translate(81.217508, 57.186116)"><path style="stroke:none" d="M 1.109375 -2.984375 L 1.109375 -2.1875 L 2.515625 -2.1875 L 2.515625 -1.546875 L 1.109375 -1.546875 L 1.109375 -0.71875 L 2.765625 -0.71875 L 2.765625 0 L 0.28125 0 L 0.28125 -3.703125 L 2.765625 -3.703125 L 2.765625 -2.984375 Z M 1.109375 -2.984375 "/></g></g><g style="fill:#3b3f3f;fill-opacity:1;"><g transform="translate(84.648525, 57.186116)"><path style="stroke:none" d=""/></g></g><g style="fill:#3b3f3f;fill-opacity:1;"><g transform="translate(86.303234, 57.186116)"><path style="stroke:none" d="M 0.3125 -3.703125 L 1.140625 -3.703125 L 1.140625 0 L 0.3125 0 Z M 0.3125 -3.703125 "/></g></g><g style="fill:#3b3f3f;fill-opacity:1;"><g transform="translate(88.201128, 57.186116)"><path style="stroke:none" d="M 0.046875 -3.703125 L 0.875 -3.703125 L 1.75 -0.875 L 1.78125 -0.875 L 2.640625 -3.703125 L 3.46875 -3.703125 L 2.28125 0 L 1.234375 0 Z M 0.046875 -3.703125 "/></g></g><g style="fill:#3b3f3f;fill-opacity:1;"><g transform="translate(92.150236, 57.186116)"><path style="stroke:none" d=""/></g></g><g style="fill:#3b3f3f;fill-opacity:1;"><g transform="translate(93.804945, 57.186116)"><path style="stroke:none" d="M 2.953125 -2.984375 L 1.96875 -2.984375 L 1.96875 0 L 1.15625 0 L 1.15625 -2.984375 L 0.1875 -2.984375 L 0.1875 -3.703125 L 2.953125 -3.703125 Z M 2.953125 -2.984375 "/></g></g><g style="fill:#3b3f3f;fill-opacity:1;"><g transform="translate(97.383986, 57.186116)"><path style="stroke:none" d="M 0.28125 -3.703125 L 1.234375 -3.703125 L 2.578125 -1.265625 L 2.59375 -1.265625 L 2.59375 -3.703125 L 3.40625 -3.703125 L 3.40625 0 L 2.4375 0 L 1.109375 -2.34375 L 1.09375 -2.34375 L 1.09375 0 L 0.28125 0 Z M 0.28125 -3.703125 "/></g></g><g style="fill:#3b3f3f;fill-opacity:1;"><g transform="translate(101.512834, 57.186116)"><path style="stroke:none" d="M 0.265625 -3.703125 L 1.078125 -3.703125 L 1.078125 -2.25 L 1.109375 -2.25 L 2.34375 -3.703125 L 3.28125 -3.703125 L 1.953125 -2.140625 L 3.28125 0 L 2.359375 0 L 1.4375 -1.5625 L 1.078125 -1.171875 L 1.078125 0 L 0.265625 0 Z M 0.265625 -3.703125 "/></g></g></g></svg>